<svg xmlns="http://www.w3.org/2000/svg" width="24" height="24" viewBox="0 0 24 24" fill="none" stroke="white"
  stroke-width="2" stroke-linecap="round" stroke-linejoin="round" class="lucide lucide-wallet w-6 h-6"
  data-lov-id="src/components/financial/StatsCards.tsx:77:14" data-lov-name="card.icon"
  data-component-path="src/components/financial/StatsCards.tsx" data-component-line="77"
  data-component-file="StatsCards.tsx" data-component-name="card.icon"
  data-component-content="%7B%22className%22%3A%22w-6%20h-6%22%7D">
  <path d="M19 7V4a1 1 0 0 0-1-1H5a2 2 0 0 0 0 4h15a1 1 0 0 1 1 1v4h-3a2 2 0 0 0 0 4h3a1 1 0 0 0 1-1v-2a1 1 0 0 0-1-1">
  </path>
  <path d="M3 5v14a2 2 0 0 0 2 2h15a1 1 0 0 0 1-1v-4"></path>
</svg>